<?xml version="1.0" encoding="UTF-8"?><svg id="Layer_2" xmlns="http://www.w3.org/2000/svg" viewBox="0 0 25 29.48"><g id="Layer_2-2"><g><path d="m3.98,20.94c6.17-2.81,5.83-9.58.95-13.24,0,0-3.49,3.07-2.92,6.75.57,3.68,2.45,3.09,1.97,6.49Zm1.06-11.6c-.74,1.55-.87,2.7-.76,3.71.44-.08,1.55-.32,2.31-.92l.24.31c-.83.66-2.03.92-2.5,1,.08.48.21.93.33,1.39.02.07.04.14.06.2.42-.07,1.56-.31,2.34-.92l.24.31c-.82.65-2,.91-2.48,1,.25.97.43,2,.14,3.35l-.39-.08c.18-.83.17-1.54.07-2.19-.45-.12-1.16-.34-1.78-1.05l.3-.26c.46.53,1.01.76,1.41.88-.08-.38-.18-.75-.28-1.12-.04-.13-.07-.26-.11-.39h-.01c-.4-.22-1.13-.6-1.6-1.31l.33-.22c.32.48.79.8,1.15,1.01-.12-.51-.2-1.03-.2-1.61-.15-.09-.3-.21-.44-.35-.17-.17-.33-.38-.48-.64l.34-.19c.12.23.26.41.41.55.06.06.12.11.19.16.06-.8.3-1.7.82-2.79l.36.17h0Z" fill="#fff" fill-rule="evenodd"/><path d="m13.75,15.41c3.59-1.63,3.39-5.58.55-7.7,0,0-2.03,1.79-1.7,3.93.33,2.14,1.43,1.8,1.15,3.78Zm.62-6.75c-.43.9-.5,1.57-.44,2.16.26-.04.9-.18,1.34-.53l.14.18c-.48.38-1.18.53-1.46.58.05.28.12.54.19.81.01.04.02.08.03.12.25-.04.91-.18,1.36-.54l.14.18c-.48.38-1.16.53-1.44.58.15.57.25,1.16.08,1.95l-.22-.05c.1-.48.1-.9.04-1.27-.26-.07-.68-.2-1.04-.61l.17-.15c.27.31.59.44.82.51-.05-.22-.11-.44-.17-.65-.02-.07-.04-.15-.06-.22h0c-.23-.13-.66-.35-.93-.76l.19-.13c.19.28.46.46.67.59-.07-.29-.12-.6-.12-.94-.09-.05-.18-.12-.26-.2-.1-.1-.19-.22-.28-.37l.2-.11c.07.13.15.24.24.32.04.03.07.07.11.09.04-.46.17-.99.48-1.62l.21.1h0Z" fill="#fff" fill-rule="evenodd"/><path d="m8.31,7.7c3.59-1.63,3.39-5.58.55-7.7,0,0-2.03,1.79-1.7,3.93.33,2.14,1.43,1.8,1.15,3.78Zm.62-6.75c-.43.9-.5,1.57-.44,2.16.26-.04.9-.18,1.34-.53l.14.18c-.48.38-1.18.53-1.46.58.05.28.12.54.19.81.01.04.02.08.03.12.25-.04.91-.18,1.36-.54l.14.18c-.48.38-1.16.53-1.44.58.15.57.25,1.16.08,1.95l-.22-.05c.1-.48.1-.9.04-1.27-.26-.07-.68-.2-1.04-.61l.17-.15c.27.31.59.44.82.51-.05-.22-.11-.44-.17-.65-.02-.07-.04-.15-.06-.22h0c-.23-.13-.66-.35-.93-.76l.19-.13c.19.28.46.46.67.59-.07-.29-.12-.6-.12-.94-.09-.05-.18-.12-.26-.2-.1-.1-.19-.22-.28-.37l.2-.11c.07.13.15.24.24.32.04.03.07.07.11.09.04-.46.17-.99.48-1.62l.21.1h0Z" fill="#fff" fill-rule="evenodd"/><g><path d="m22.85,22.82c-.71.52-1.45.99-2.22,1.42-.87.48-1.78.91-2.69,1.31-1.97.86-4.01,1.56-6.08,2.12h0c-1.6.44-3.23.78-4.87,1-1.32.18-2.64.3-3.97.2-.66-.05-1.34-.14-1.94-.41.16.15.35.28.55.38,1.04.51,2.29.62,3.43.64,1.94.02,3.87-.27,5.75-.69h0c1.38-.31,2.74-.69,4.08-1.15,1.83-.63,3.62-1.38,5.31-2.32,1.04-.59,2.04-1.24,2.94-2.02.66-.58,1.25-1.17,1.65-1.97.07-.14.13-.29.19-.44.02-.04.04-.1.04-.14h0c-.49.86-1.35,1.51-2.14,2.08h0Z" fill="#fff"/><path d="m23.75,18.14c-.59-.27-1.28-.4-1.92-.47-1.21-.14-2.44-.09-3.65.04-2.22.23-4.43.72-6.56,1.38-.46.14-.92.28-1.37.44h-.02c-1.28.46-2.55.95-3.78,1.53-1.27.6-2.49,1.3-3.65,2.11-.82.58-1.63,1.23-2.22,2.04-.15.19-.28.4-.39.62-.17.36-.26.76-.12,1.14.14.39.51.66.88.82.46.21,1,.32,1.51.39.88.12,1.76.11,2.64.05,1.3-.08,2.58-.27,3.86-.53.46-.09.92-.18,1.37-.29,1.42-.33,2.82-.73,4.2-1.21,1.58-.55,3.13-1.16,4.63-1.91,1.29-.64,2.52-1.35,3.66-2.23.73-.56,1.46-1.19,1.86-2.03.15-.31.19-.68.07-1-.16-.44-.58-.73-.99-.92h0Zm-2.95,2.03c-1.25-.34-2.59-.36-3.87-.26-.32.02-.63.04-.95.08-1.23.16-2.44.42-3.63.78l-3.83,1.46c-1.58.75-3.15,1.71-4.34,3.02h0c-.22.23-.41.48-.59.74-.15.25-.28.51-.37.79.04-.29.16-.57.29-.83.29-.61.73-1.13,1.22-1.6.59-.57,1.22-1.05,1.9-1.5h0c.49-.32,1-.62,1.52-.9.95-.49,1.94-.91,2.95-1.26.61-.23,1.25-.41,1.89-.57.74-.18,1.49-.34,2.25-.45h0c1.08-.17,2.17-.21,3.26-.14,1.31.09,2.62.38,3.7,1.18-.45-.23-.9-.42-1.4-.56h0Z" fill="#fff"/></g></g></g></svg>